<!-- Generated by IcoMoon.io -->
<svg version="1.1" xmlns="http://www.w3.org/2000/svg" width="1024" height="1024" viewBox="0 0 1024 1024">
<title>instagram</title>
<g id="icomoon-ignore">
</g>
<path d="M0 512c0-282.769 229.231-512 512-512s512 229.231 512 512c0 282.768-229.232 512-512 512s-512-229.232-512-512zM512.026 238.933c-74.16 0-83.469 0.324-112.595 1.649-29.072 1.331-48.912 5.935-66.275 12.687-17.962 6.974-33.196 16.305-48.374 31.488-15.189 15.179-24.521 30.413-31.518 48.366-6.769 17.37-11.377 37.219-12.685 66.278-1.304 29.126-1.645 38.438-1.645 112.602 0 74.16 0.331 83.44 1.649 112.566 1.338 29.072 5.939 48.912 12.687 66.275 6.98 17.962 16.309 33.197 31.494 48.374 15.172 15.19 30.406 24.541 48.356 31.517 17.373 6.752 37.222 11.354 66.288 12.685 29.126 1.328 38.429 1.651 112.582 1.651 74.17 0 83.446-0.323 112.576-1.651 29.069-1.331 48.934-5.933 66.31-12.685 17.952-6.976 33.165-16.326 48.336-31.517 15.19-15.178 24.522-30.413 31.517-48.368 6.714-17.37 11.322-37.216 12.688-66.275 1.309-29.13 1.648-38.413 1.648-112.573 0-74.163-0.339-83.469-1.648-112.595-1.366-29.072-5.974-48.915-12.688-66.278-6.995-17.959-16.326-33.194-31.517-48.372-15.19-15.189-30.378-24.518-48.355-31.488-17.408-6.752-37.261-11.356-66.333-12.687-29.13-1.325-38.4-1.649-112.586-1.649h0.086z"></path>
<path d="M487.517 288.162c7.27-0.011 15.386 0 24.499 0 72.909 0 81.549 0.262 110.342 1.57 26.624 1.218 41.075 5.666 50.701 9.404 12.742 4.949 21.827 10.865 31.379 20.422 9.555 9.558 15.475 18.659 20.435 31.405 3.738 9.613 8.192 24.064 9.402 50.688 1.309 28.784 1.594 37.434 1.594 110.307 0 72.877-0.285 81.523-1.594 110.31-1.216 26.624-5.664 41.075-9.402 50.688-4.95 12.742-10.88 21.818-20.435 31.37-9.558 9.558-18.63 15.472-31.379 20.422-9.616 3.754-24.077 8.192-50.701 9.411-28.787 1.306-37.434 1.59-110.342 1.59-72.915 0-81.558-0.285-110.342-1.59-26.624-1.229-41.075-5.68-50.707-9.418-12.742-4.95-21.846-10.864-31.403-20.422s-15.473-18.637-20.433-31.386c-3.738-9.616-8.192-24.064-9.404-50.688-1.31-28.787-1.57-37.434-1.57-110.355s0.26-81.523 1.57-110.307c1.216-26.624 5.666-41.075 9.404-50.701 4.949-12.742 10.876-21.846 20.433-31.404s18.661-15.473 31.403-20.435c9.626-3.755 24.083-8.192 50.707-9.414 25.19-1.137 34.95-1.478 85.843-1.536v0.068zM657.776 333.501c-18.090 0-32.768 14.662-32.768 32.758 0 18.090 14.678 32.768 32.768 32.768 18.093 0 32.768-14.678 32.768-32.768s-14.675-32.758-32.768-32.758zM512.016 371.789c-77.446 0-140.234 62.79-140.234 140.234s62.787 140.205 140.234 140.205c77.443 0 140.208-62.762 140.208-140.205s-62.765-140.234-140.208-140.234z"></path>
<path d="M512.022 420.97c50.269 0 91.024 40.749 91.024 91.021 0 50.269-40.755 91.024-91.024 91.024-50.275 0-91.024-40.755-91.024-91.024 0-50.272 40.749-91.021 91.024-91.021z"></path>
</svg>
